<?xml version="1.0" standalone="no"?>
<!DOCTYPE svg PUBLIC "-//W3C//DTD SVG 20010904//EN"
 "http://www.w3.org/TR/2001/REC-SVG-20010904/DTD/svg10.dtd">
<svg version="1.0" xmlns="http://www.w3.org/2000/svg"
 width="227.000000pt" height="227.000000pt" viewBox="0 0 227.000000 227.000000"
 preserveAspectRatio="xMidYMid meet">
<metadata>
Created by potrace 1.11, written by Peter Selinger 2001-2013
</metadata>
<g transform="translate(0.000000,227.000000) scale(0.100000,-0.100000)"
fill="#000000" stroke="none">
<path d="M1074 2254 c-17 -9 -40 -30 -50 -48 -18 -29 -19 -56 -19 -448 0 -229
-2 -419 -5 -422 -3 -3 -22 79 -43 182 -44 222 -42 209 -67 347 -24 129 -65
222 -108 248 -61 35 -148 12 -189 -50 -14 -20 -18 -47 -18 -108 0 -82 3 -107
29 -260 8 -49 18 -110 21 -135 3 -25 10 -72 15 -105 5 -33 11 -82 15 -110 3
-27 10 -79 16 -115 6 -36 12 -85 15 -110 3 -25 11 -86 18 -137 6 -50 9 -90 6
-88 -3 2 -41 82 -85 179 -100 223 -128 256 -215 256 -50 0 -111 -30 -135 -66
-23 -36 -22 -106 3 -174 12 -30 44 -116 71 -190 28 -74 72 -191 97 -260 163
-442 351 -621 664 -635 302 -13 578 166 678 439 25 67 26 82 27 266 l1 195 37
105 c20 58 57 161 82 230 80 217 99 327 71 395 -18 42 -49 63 -104 68 -101 10
-153 -52 -227 -268 -45 -130 -74 -195 -61 -135 3 14 29 147 57 295 75 391 72
484 -19 522 -42 17 -109 12 -145 -12 -43 -28 -68 -91 -92 -228 -37 -213 -100
-527 -105 -527 -3 0 -6 186 -8 413 -2 271 -6 422 -14 440 -22 56 -146 85 -214
51z"/>
</g>
</svg>
